<!--?xml version="1.0" encoding="utf-8"?-->
<!-- Generator: Adobe Illustrator 15.1.0, SVG Export Plug-In . SVG Version: 6.00 Build 0)  -->

<svg version="1.1" id="_x32_" xmlns="http://www.w3.org/2000/svg" xmlns:xlink="http://www.w3.org/1999/xlink" x="0px" y="0px" width="512px" height="512px" viewBox="0 0 512 512" style="width: 64px; height: 64px; opacity: 1;" xml:space="preserve">
<style type="text/css">

	.st0{fill:#4B4B4B;}

</style>
<g>
	<path class="st0" d="M167.803,173.237c14.141,13.281,18.984,25.813,21.891,33.297c0.438,1.156,0.781,2.281,1.359,3.375
		c0,0,0,0,0.016,0c0.125,0,1.297,0.906,3.891,2.297c3.641,1.953,4.781,1.969,7.453,1.969c0.016,0,2.594-0.031,3.906-0.063
		c1.969-0.063,3.984-0.109,6.094-0.109c14.203,0,32.719,2,62.406,16.781c32.484,16.203,44.766,30.953,54.547,44.672
		c4.094,5.719,4.344,6.063,8.359,7.922c3.328,1.547,4.75,1.75,4.75,1.75c-0.188-0.078,1.625-0.594,2.938-0.969
		c5.469-1.547,13.734-3.891,24.828-3.891c4.813,0,9.828,0.438,14.938,1.328c8.703,1.5,17.406,4.859,25.344,9.641
		c8.672-25.469-1.219-53.781-24.094-68c30.016-17.219,32.813-58.922,3.438-81.516c24.859-7.594,23.375-37.828,9.063-55.422
		c-7.281-8.922-8.359-15.719-8.859-22.516c-0.984-12.984,3.953-28.406-7.672-44.391c-8.016-11.016-22.516-20.141-33.172-19.344
		c-7.156,0.531-1.5,5.219,1.297,11.422c4.656,10.266-0.031,20.578-10.922,25.297c-14.031,6.078-22.359,5.063-31.813,4.094
		c-22.563-2.313-48.016,16.031-39.094,40.453c-36.313-10-68.094,18.453-62.547,53.516c-23.125-5.453-47.563,3.984-61.203,24.016
		C153.428,162.237,161.288,167.127,167.803,173.237z" style="fill: rgb(38, 83, 215);"></path>
	<path class="st0" d="M119.944,483.268c0.203,10.891,6.469,20.781,16.234,25.656c9.75,4.859,21.422,3.906,30.25-2.484
		c0,0,170.453-124.828,189.953-137.125c27.313-17.234,51.891-7.813,53.422-23.484c1.469-15.047-15.391-28.906-30.281-31.469
		c-26.625-4.594-28.781,11.656-55.766-0.813c-27.672-12.813-14.703-28.531-63.781-53s-53.828-4.641-80.719-19.031
		c-26.188-14.031-14.5-25.531-34.219-44.031c-11-10.344-32.234-15.469-43.344-5.234c-11.625,10.656,10.719,24.609,13.391,56.781
		C117.006,272.018,119.944,483.268,119.944,483.268z" style="fill: rgb(38, 83, 215);"></path>
</g>
</svg>
